<svg xmlns="http://www.w3.org/2000/svg" width="1200" height="1488" version="1.0" viewBox="0 0 900 1116">
  <path d="M473 1c0 2-3 3-4 2-2-1-12 2-18 5l-6 2-6 3-5 3-3 1-2 2-3 1-3 2-4 2-9 7-10 9c-5 4-5 6-5 8 0 5 0 6 4 7 2 1 3 0 6-1l7-4c4-2 11-1 13 0l2 2 4 2c2 3 2 4 2 18l-1 17-1 7-1 6-1 8-2 14a451 451 0 0 0-3 22l-3 19-4 17-1 7-1 7-2 8-2 9-1 4-1 4-1 2-3 11-1 4-1 3-2 4-3 4-3 4-2 6c-3 4-2 9 0 12s3 3 9 2l8-1 6-1 7-2 8-1 7-1 8-1c6 0 8-1 11-2 7-5 8-9 2-20l-4-10-1-6c-2-3-2-15 0-19l1-12a103 103 0 0 1 5-32l3-9 3-7 1-4c0-2 12-14 16-16 6-3 7-3 11 1 3 4 3 4 3 13l-1 11-2 7-1 4-1 4-3 13-1 4-1 4c-2 1-4 22-4 36 0 17 1 22 5 26l3 5 9 1a35 35 0 0 0 21-5l2-2 7-5 13-10 8-7 6 4 6 5 4 2c5 2 11 3 20 3 14-1 22-3 28-8l5-3 21-22 5-8c2-5 4-6 4-1l2 4 1 6 2 9c5 8 13 15 19 15l4 1 4 1 4-1 4-1 7-2 4-1c6 0 32-24 38-35 7-12 8-15 8-18 0-5-2-7-6-7-3 0-4 1-12 9a67 67 0 0 1-13 10c-2 3-10 2-14 0-5-3-5-5-5-23a101 101 0 0 1 4-35l2-11 2-11 1-6 1-5c0-4 1-5 2-7 3-2 7-4 11-4 8 0 21-9 24-16 2-5 1-7-2-11l-3-4-5 2-8 2-4 1c-1 1-8 2-9 1-2-1-2-3-2-13l1-21 1-10h-12l-3 2c-2 1-9 14-9 18l-1 3-4 4c-5 8-25 26-29 26l-4 4c-4 5-4 10 0 17 3 3 4 4 6 4l6 1c2 1 2 2 2 14l-1 14-1 4-3 14-2 6-2 6c-1 5-3 12-5 14l-1 2-3 5-3 4c0 2-16 17-22 20s-7 3-16 3l-11-1c-7-4-12-10-12-16 0-5 2-6 7-6a63 63 0 0 0 24-7c10-5 23-17 28-28 5-10 6-14 6-25 0-13-2-19-10-27s-16-12-24-12c-5 0-11 1-14 3l-7 4a105 105 0 0 0-28 28c-5 5-11 18-11 21l-1 3-2 4-1 2-4 14-1 8-1 6a95 95 0 0 0 1 36c0 4 0 5-3 8-7 5-13 5-15 0-1-3-1-18 1-26l2-10 2-8 2-12c1-13 2-19 4-20l1-17c0-15 0-16-3-22s-8-11-10-11l-3-2-11-1c-8 0-9 0-14 3l-9 6-4 3-7 6-7 6 1-13 1-3 1-5 2-9 2-9 1-5 2-4 1-6 1-4 1-4 2-9 2-8 2-5 2-12c0-8 0-9-3-12l-6-4c-2 0-3-1-3-2l-3-1-4 1zm138 111c2 0 6 5 6 9l-1 4-2 6c0 4-3 11-8 17l-4 7-2 2-4 2c-3 4-10 7-12 7l-1-8 3-16 1-3 1-4 4-8 5-11c3-3 8-5 11-4h3zM122 41l-12 2-6 2-6 2-9 5-6 3-5 3-4 3-21 20-8 12-4 5-2 4-5 8-4 8-1 5-2 4-1 4-2 4-1 4-2 3-1 4-1 5-1 3c1 1 0 2-1 3l-1 5-1 5-1 5-2 7-1 6v57c0 5 1 9 3 12l2 8 2 5 2 6 3 5 3 5c0 2 1 5 3 7l3 5 1 2 6 6c6 6 16 13 23 15 7 3 18 4 32 4 13-1 14-1 16-3l6-2 6-1 5-3a169 169 0 0 0 48-47l8-16 2-4 1-4 2-5 3-6 2-5 2-6 2-9 2-6 1-6 2-6 1-4 1-5 2-15 1-21v-14l-1-18-1-12c-2-4-6-15-5-16l-1-3-2-5c0-2-1-6-3-8l-3-6-17-15-8-4-4-3-4-1-6-1-12-2h-10l-9 1zm18 43c6 5 9 9 9 10l3 5c2 3 3 5 3 9l1 5c3 2 5 20 4 35a838 838 0 0 0-1 32c-1 2-3 11-3 20l-2 5-1 4-1 3-1 2c0 4-3 12-6 14l-2 4-1 3-3 4c-4 6-16 17-18 17l-3 1-11 1c-10 0-11 0-16-3l-8-7a405 405 0 0 0-9-12l-2-5-2-5-1-5c-2-3-3-14-3-31 0-22 0-30 3-35l2-6 2-9 2-7 4-10 4-10c0-3 2-3 4-2v6c-1 4-1 30 1 42 1 10 11 28 16 28l2 2 9 1c10 0 15-3 21-15 3-7 1-18-4-18l-6-4-6-5c-2-1-7-8-7-11l-1-3c-3-2-4-8-3-22 0-12 1-15 2-17l2-3c0-2 4-6 9-9 6-3 15-2 18 1zm166 27-3 1-15 7-3 2-5 4c-2 3-5 5-6 5v-3l1-6v-6h-6c-5 0-10 2-13 6l-4 2-4 3-1 1-6 3a371 371 0 0 1-21 15c-2 4-2 4-1 6l2 2 3 4c3 4 7 18 4 20l-1 9-1 11-2 7-1 4-1 10-2 12-2 8-1 5-1 6-2 10-2 11-2 7-1 5-2 16-1 4-1 6c-1 1-2 4-4 18l-2 9-2 5-2 6c-3 6 0 13 6 13l3 1 9 1c9 1 22 3 23 5l3 1 4 1c4 2 13 4 21 5l10 2c4 1 18 1 20-1l5-1c3 0 11-4 12-5l4-2c4-1 12-9 18-17 3-4 5-10 5-13l2-5 1-6-1-5-2-4c0-2-2-4-5-8-4-4-5-4-7-3l-5-1-3-1-5 1c-3 0-5 1-9 4l-6 8-2 3 3 4c6 9 6 16 0 22-5 5-11 7-20 7-10-1-16-4-21-11-4-5-6-9-7-16a84 84 0 0 1 3-35l1-5 1-2 1-3c2-1 3-1 6 3 3 2 6 5 8 5l4 3c2 2 18 1 22 0l6-3a96 96 0 0 0 31-35l3-6 3-6 1-4c2-7 3-12 5-14l1-6 1-3 1-6 2-11a285 285 0 0 0 0-51 42 42 0 0 0-9-22c-3-4-7-7-15-11-6-3-20-4-21-2zm-3 41 5 7 2 4a222 222 0 0 1-1 45l-3 11-1 4-1 3-2 3c0 3-5 11-11 16-5 5-5 5-11 5s-7 0-11-4l-5-6-3-5c-2-3-2-27 0-32 2-4 4-11 5-19l2-6 1-3c0-2 2-7 6-12 2-4 11-12 13-12l2-2 5-1c3 0 5 1 8 4zm454 78-4 1c-4 0-16 8-16 10l-4 5-6 9-4 6-1 4-1 3v22c2 4 12 14 14 14l2 2 7 1c5 0 8-1 14-4 9-4 13-8 16-13l5-6c3-3 6-10 6-14l2-4v-10l-2-6-1-4-2-3c0-2-11-11-15-12-7-2-8-2-10-1zm-97 39-4 6-9 18-3 5-3 4-6 7c-6 7-19 16-23 16a40 40 0 0 0-12 14c-2 1-2 3-2 6l1 7 4 3c2 1 3 2 8 2 8 1 8 2 8 21l-1 15-1 7-2 7-1 7-1 4-1 9-3 9-1 5a63 63 0 0 1-25 36c-5 3-9 1-11-4-2-3-2-6-2-13 1-14 2-20 4-21l1-5 1-5 1-3c0-6 1-16 3-19l1-7 1-6a92 92 0 0 0-2-33c0-4-9-14-13-15-9-4-11-4-18-3l-8 2-3 1-6 3-5 3-11 9-9 8v-3l1-5c2-2 1-7-1-10-3-2-13-3-14 0l-2 1-3 1c-1 2-8 6-13 9l-5 4-3 1c-2 0-11 7-13 11-3 4-3 7 2 12l6 7v18l-1 5-2 7-1 7-1 5-2 13-2 5-1 6-1 3-1 7-2 7-2 3c0 1-9 11-15 15-6 5-8 5-12 0-2-3-3-5-3-8l-1-6-1-6a422 422 0 0 0 5-29l1-5 1-3c0-7 1-13 3-14l1-6 1-6 1-3 3-14 1-6 1-6c1-3 2-4 3-14 0-6 0-7-2-9-4-3-4-3-20 6l-8 4-3 2-4 1-4 1-6 3c-4 1-5 3-7 6-3 5-3 5 1 12 2 5 3 8 3 13l-1 6-1 8-1 8-2 6a73 73 0 0 1-6 25c0 3-3 12-7 20l-2 6-1 2-3 6c-3 5-8 10-13 13-6 4-13 1-17-5l-1-15a124 124 0 0 1 4-33l2-9 2-10 2-6 1-5 1-4 1-9 3-9 1-5 1-5 1-7c0-12-4-14-20-7-2 2-6 3-8 3l-4 2-2 1-4 1-3 2-12 4c-4 1-6 6-6 12 0 4 0 6 2 7l2 5 1 2 1 4 1 5c2 3 2 13 0 15l-1 8-1 7-1 7a191 191 0 0 1-4 22l-2 9c-2 4-2 29 0 31l2 3c0 5 7 13 15 18 5 2 7 3 13 3 5 0 7 0 8-2l4-1c5 0 12-3 16-6l5-3 11-11 11-10 1 3c0 3 7 13 10 15l11 2c6 0 8 0 15-4 6-3 10-6 18-15l11-10c2 0 1 10-1 12-1 2-1 2 1 5 2 4 2 4 9 4l8-1c2-2 11-4 29-5 5 0 8-1 9-2l2-1c3 0 7-6 7-8a474 474 0 0 0-8-25 134 134 0 0 1 3-54l1-7 3-9 1-3c0-4 8-19 13-24l6-5 3-2 6-1c5 0 5 0 8 2 4 6 4 10 2 24l-1 7-1 2-1 4-2 4-5 14-4 16-2 7-1 7-2 8-1 8 1 9 2 6c0 4 5 11 12 15h21l3-1 7-3 5-3c2 0 16-12 16-14l4-5 10-14c1-4 3-2 4 3l1 5 1 4c0 4 7 13 14 17h25l7-3 4-3 5-2 2-2 4-3c5-4 10-8 12-12l4-4 1-3 1-3c1 0 4-4 10-16l4-12c0-5-3-9-5-9-3 0-9 6-11 11-3 4-12 14-14 14l-3 2-5 2c-5 0-10-4-10-7l-2-3c-2-2-2-31 0-33l2-10 1-9 1-5c0-8 1-16 3-19l1-6 1-6 2-8 2-7h5c5 0 7-1 14-4l4-1 11-9c10-9 11-12 6-16-2-2-3-2-9-2-18 2-24 2-25 1v-16l1-7 1-9c2-3 2-19 0-22l-5-1c-3 0-4 1-7 4zm179 33-11 6-7 5c-4 2-12 10-12 11l-4 6-8 10-5 6-1 3-6 14-3 8-1 4-2 5-1 5c-1 1-2 5-2 12l-2 12c-1 2-1 21 1 33 1 9 6 18 13 26 6 6 14 11 18 11l3 1c2 3 33-1 37-4l2-1 3-1 6-3c4-2 7-5 15-13 10-11 13-13 16-20l4-8c5-9 7-22 3-24-3-1-6 1-12 9-6 10-10 14-16 17l-6 3c-5 3-9 4-17 4-7 0-9 0-14-3-4-2-9-7-9-10l-1-2c-1 0-2-3-3-10 0-4 0-5 10-5 11-1 25-6 27-10l3-2c4 0 27-24 27-28l3-6 3-10 2-4c2-2 2-16 0-20l-2-5-2-6-4-6c-1-2-7-7-13-10s-23-3-32 0zm13 30c2 3 2 4 2 9l-1 10c0 6-6 18-9 22l-2 3c0 2-3 5-7 8l-4 2c-3 3-9 5-11 5-3-1-3-2-3-4l2-8 1-6 1-3 1-6 3-9c3-7 7-17 10-20 4-3 9-6 12-5l5 2z"/>
  <path d="M759 319c-1 2-4 3-5 3l-7 4a126 126 0 0 1-18 9l-7 3c-4 3-9 8-9 11l3 5 3 6 2 4v13l-1 13a669 669 0 0 1-13 110l-4 22-2 9-1 5-1 5-2 5-2 6-2 5-5 8c-4 9-8 15-10 15l-3 2-8 4c-8 4-14 4-19 0-7-4-5-10 7-16 5-2 8-5 11-8 5-5 5-6 5-11 0-8-5-16-14-20-4-2-18-3-22 0l-4 1c-7 0-29 17-29 22l-2 3-2 5-1 2v26l3 5c4 10 19 21 28 21l4 1h25l5-1 6-2 5-1 6-2 4-1 3-1 4-3 7-4c5-3 22-20 24-24l6-10 1-4 1-3 5-14 1-3 2-5 2-10 2-8c-1-1 0-2 1-3l1-4 1-4 3-16 1-4 1-6 1-7c2-1 2-8 4-27l2-14 2-10 1-9 1-7 2-13 1-8 1-8 1-9 2-8 1-15 2-18c0-10 0-11-2-12-3-3-6-2-9 0zm-650 57-13 2a100 100 0 0 0-37 7l-4 1-6 2-5 3-5 3a84 84 0 0 0-23 21l-2 2-2 3-3 5-3 5-1 4-4 17a161 161 0 0 0 1 35l2 6c2 5 15 19 17 19l5 3 6 3 4 1 11 1 12-1 2-1c6 0 22-16 22-21l1-5 3-6c0-3 0-4-2-6l-8-2c-6 0-9-2-14-6-3-4-7-15-7-22 0-8 5-21 9-25l3-4 3-3a358 358 0 0 0 15-10l7-3c4-2 18-2 20 0l3 2c3 0 7 4 7 6l1 2 1 8 1 9c1 1 1 2-1 5l-3 16c0 9-1 13-2 14l-1 8-1 7-1 10-2 15-2 17-1 11-2 5-2 19-1 5-1 6-2 8a216 216 0 0 1-6 33c-3 19-4 22-5 23l-1 6-1 4-3 7c-2 11-2 12-4 14l-1 4-5 5c-4 3-5 3-11 4-10 0-15 2-18 5-4 5-2 10 6 14l5 3 12 1c10 0 13 0 14-2l3-1a42 42 0 0 0 18-6c1 0 12-10 12-12l1-2a231 231 0 0 0 20-42l6-23 2-5 3-17 2-10 2-7c0-3 2-4 4-1l4 2 2 1 5 3 4 1h20l3-1 7-2 5-2 4-3 4-3c2 0 15-9 17-12l7-8c6-7 10-13 10-16l3-5 3-5 2-3 1-5 2-5c2-2 3-4 3-7l3-7 1-5 1-4 3-29c0-16-1-25-3-29l-1-6-1-4-2-2c0-7-13-21-23-25-6-3-7-3-21-3-11 0-15 1-16 2l-3 1-6 3-5 3-8 7c-8 10-10 10-10 3l-2-8-3-4c-1-1-10-7-16-9l-7-3-3-1-3-1c-1-1-5-2-17-3l-11-2h-3zm101 49 5 2c3 0 9 9 9 13l2 6c1 2 2 18 0 20-1 1-3 10-3 19l-4 11-1 3-1 3-1 3-6 12-1 3-1 3-2 2c0 2-10 11-15 14-4 2-6 2-9 2-5-1-11-4-12-7l-3-4-2-6a205 205 0 0 1 8-67c1-5 2-6 6-14 3-7 7-12 9-13l6-3c4-3 13-4 16-2zm586 152-19 10-12 11a88 88 0 0 0-14 20 84 84 0 0 0-8 14l-4 11-3 10c-2 5-3 12-3 22l-1 10v26c1 8 7 20 13 26 5 4 8 6 15 9a91 91 0 0 0 37-4l4-2 3-1a105 105 0 0 0 36-38c2-1 8-16 8-19l1-3c2-2 2-6 1-8-2-2-6-1-9 1l-2 3c0 3-18 23-22 25l-4 2c-3 2-12 4-18 4-10 0-16-4-21-15-3-5-3-5-2-7l4-3 2-1 5-1 4-1 3-1c2 0 16-7 17-9l2-1 6-4 6-5c1 0 3-1 3-3l5-6c5-6 11-18 11-24l1-3v-17l-2-7c-1-3-2-7-4-9l-2-4-9-7c-4-2-7-2-15-2l-13 1zm8 30c2 1 2 2 2 9l-4 20-3 5c-2 4-17 19-21 21l-6 2c-2-1-3-6-1-8l2-6a264 264 0 0 1 6-22l4-10 2-5c4-7 13-10 19-6zm-301-19-3 1a578 578 0 0 0-32 28c-2 2-4 0-2-4l1-10v-7l-5-1-6 1-7 5-6 5-3 1-3 1-4 3c-7 3-11 6-12 10-1 5 0 8 2 10 2 3 3 9 3 15l-2 18-2 7-1 9-2 8-2 6-1 4c0 7-5 15-11 18-9 3-16 4-18 1-2-1-2-3-2-12a104 104 0 0 1 4-31 211 211 0 0 1 6-29l1-7 3-7 1-6 1-2 1-3c1-1 1-6-1-7l-6-1c-4 1-5 2-11 8l-8 6c-1 0-4-2-6-5-7-6-12-8-21-8l-10 1-4 2-3 1-2 2c-2 0-5 3-9 6l-7 6-3 3c0 2-2 4-3 5l-3 4-2 2-3 6a284 284 0 0 0-9 20l-6 16-2 10c-4 9-4 46 0 51l1 4c1 5 10 13 17 17 7 3 14 4 16 2l4-2 12-10c6-5 10-10 10-11l6-6 1 3c0 3 2 7 6 12 6 6 11 8 15 5l4-2 28-28 6-5v2l-1 5-3 7-1 8c0 4 1 5 4 5 4 1 11 0 13-2l5-1 5-1c1-1 4-2 19-4 6-1 7-1 12-6 3-3 2-4-1-11l-3-9a252 252 0 0 1 1-59l2-3c0-3 3-12 5-14l2-5c1-4 11-13 15-15 5-3 10-2 12 3 2 4 2 13 0 16l-1 6-1 6-2 8-2 9-1 6-1 4c-2 2-3 29-1 38 1 7 2 9 7 14 5 4 9 6 14 6s13-3 16-5l4-2a122 122 0 0 0 19-21l3-6 4-6c1-1 1-2-1-4-2-3-4-2-8 2s-9 6-12 6-8-4-8-6l-1-6v-7l1-8 1-7 1-4 3-16 1-7 1-7c2-1 2-4 2-16l-2-19-7-10-6-5h-7c-5 0-7 0-8 2zm-149 55c6 2 8 7 8 18l-1 11-2 4-1 4-1 3-3 11-1 3-1 4-2 3a61 61 0 0 1-9 16c0 3-7 9-10 10-6 2-9 1-12-4-2-2-2-5-2-17 0-11 0-15 2-16l1-5c0-6 5-18 10-30 5-9 7-11 13-14 7-3 7-3 11-1zm363-39-8 5-7 4-3 2-13 7-12 8-4 1c-3 0-5 2-5 4l-1 2c-2 1 1 6 5 8 7 5 7 8 7 25a135 135 0 0 1-5 41l-1 5-1 7c-1 10-2 11-3 12l-1 5-1 5-2 7c-1 6-2 10-4 13l-3 6c-4 7-18 19-24 19l-4 2-12 1c-9 0-9 0-14-3s-5-4-5-8c0-3 1-4 3-6l5-4c2 0 5-3 8-5l5-5v-8c0-7 0-8-3-11-5-5-9-7-15-7s-14 2-15 5l-3 1-3 1-4 4c-4 2-10 11-13 18l-3 9v17l2 4c0 7 12 21 21 25 7 3 9 3 28 3 23 0 30-1 37-4l3-1c3 0 13-6 20-12l7-5 4-4 3-4 3-5 5-9 4-8 1-2 1-4 2-6 4-15 2-7 2-8 2-7 2-12 1-10 1-5 1-7 2-7 2-12 1-11 2-6 1-7 4-20 1-13v-9h-3l-7 1zm-460 17-12 13c-3 4-1 14 3 22 3 6 4 12 4 24l-3 20-1 2-1 5-4 9-2 7-5 9-8 12c-3 4-9 7-12 7s-5-2-8-7c-2-3-2-12 0-27l1-12 2-5 1-6 1-7 1-7 4-31c0-4-2-14-4-17l-6-1c-6 0-17 5-24 11a385 385 0 0 0-14 13l-3 5c-2 3-3 5-3 9l1 6 3-1h7l1 6 2 8v5c-2 1-2 4-2 8l-1 8-1 6-3 17-1 18c0 16 0 18 2 22 3 6 9 13 14 15s21 3 22 1l3-1c4 0 10-4 17-12 10-10 14-16 17-20l2-5 2-5a409 409 0 0 0 13-28c2-3 4-7 4-10l3-7 5-18 1-5 1-5c1-1 2-6 2-21 0-17 0-18-7-25-5-5-6-6-9-6l-5 1z"/>
  <path d="M735 778c-6 3-9 5-17 12l-5 3-5 4-7 6-6 7-3 5 2 3 5 8c6 6 6 10 6 33a228 228 0 0 1-7 63l-1 10-2 10-2 6-1 5a89 89 0 0 1-6 26c0 4-6 12-12 15l-5 4c-6 4-12 2-14-4-1-6 0-31 3-33l1-5 4-17 1-5 1-5 1-6 2-22c1-17-4-26-16-33-5-3-7-3-13-3-9 0-18 3-27 9l-5 3c-2 0-5 3-7 5l-6 4-1-9v-9l-3-1c-3-1-8 0-11 3l-12 7-1 1-2 2a146 146 0 0 0-18 10c-10 5-13 8-13 10 0 3 6 11 10 13 2 1 2 1 2 15l-1 16-1 7-2 13-2 14-2 7-1 5c-2 10-3 12-6 9-2-3-8 0-11 5-4 5-11 12-13 12l-4-1c-2-1-2-2-2-20a86 86 0 0 1 3-30l2-14 2-13 1-7 1-4 1-5 2-7 2-7 4-13c0-5-4-10-8-9l-4 1-12 8c-2 3-5 5-6 5l-6-6-1-2-5-3-6-3-3-1c-2-3-23-3-27 0l-4 1-6 3-6 3c-3 0-21 17-24 23l-3 4-2 2-2 4c-3 5-10 18-10 21l-1 3-4 9-3 10-1 6-1 5a191 191 0 0 0 1 60c1 6 8 18 12 21 7 5 10 6 22 6 11 0 13 0 17-3l6-4 3-2c2 0 16-15 20-22 2-3 4-3 4 0l2 4 1 2c0 3 7 12 10 15 6 3 17 3 24 0a88 88 0 0 0 35-48c0-3 1-5 2-5 3 0 3 7 0 10l-2 4-2 9-2 9-1 4v11l10 1 9-2 6-1 5-1c2-2 5-2 12-2s11 0 13-2c5-2 9-10 6-13-1-1-2-12-2-37 0-26 0-36 2-37l1-6 1-6 2-4c1-10 5-20 12-26 4-3 5-4 9-4 6 0 11 2 13 6l1 12a108 108 0 0 1-5 29l-2 15-1 5-1 6-2 8-1 7c-1 1-1 27 1 32 0 3 3 6 5 9 4 4 4 4 16 6 7 1 20-6 30-15 4-4 7-7 8-6l1 4c0 6 3 7 16 7l11-1 7-1 10-1 4-2c3 0 9-3 12-6 3-4 4-8 2-12-4-5-5-20-4-42 1-6 1-7 3-9l4-2 4 8 1 3 2 4 2 8 1 6 2 3 1 4 1 3 1 2 3 8 4 8c5 12 17 23 29 27 6 2 18 3 19 1l6-1 5-3 3-1c2 0 19-17 19-19l1-2c1 0 5-11 5-16l2-5c3-3-1-15-5-15-2 0-5 4-7 8-3 7-13 13-22 13-7 0-10-1-15-6-4-4-11-14-13-20l-13-20-3-6 24-14c5-2 19-15 25-22 8-11 11-22 11-35 0-7 0-9-3-15-6-11-13-15-28-15l-10 1-4 1-6 2-6 2c-2 0-11 7-18 14l-7 7c-2 0-1-13 1-17l1-8 1-7 2-16c0-10 1-14 2-15l1-18v-17l-3-2c-4-4-11-4-20 1zm38 106 4 2c2 0 3 2 5 4 4 6 4 15 1 22-3 5-13 16-16 16l-2 1-3 2-4 1c-1 2-19 8-20 8v-7l2-7a88 88 0 0 1 12-30c1-4 9-10 11-10l5-2h5zm-310 32c3 3 4 5 5 9 1 9 0 35-2 37l-2 3-2 11-1 2-1 4-2 3-4 11c-8 14-10 18-17 21-5 3-6 3-10 2-8-3-10-8-11-24l1-14 2-7c3-14 3-18 5-19l1-3 1-4 3-8 4-7 2-4 4-6c9-11 17-13 24-7zM279 804l-10 1-9 1-7 2c-9 1-18 3-20 5l-5 1-5 1-5 2-8 4-5 2-4 1-3 2-5 2-6 3-10 7-10 7a235 235 0 0 0-27 30l-1 2c-1 0-2 1-2 3-6 10-8 15-9 24l-2 6v12l2 6c0 3 2 8 5 14 3 4 16 16 18 16l3 1c1 2 4 2 11 2l12-1 6-3c7-3 14-13 14-20l1-6c2-2 2-3 0-8-2-3-3-4-5-4l-6-2c-3-2-4-3-6-8l-1-8c3-16 7-23 20-36 10-11 13-13 21-13 7 0 8 2 8 18a128 128 0 0 1-5 40 168 168 0 0 1-6 38 277 277 0 0 1-9 41l-1 9-2 10-2 6-3 16-3 8-1 3-1 5-2 8c-3 11-10 21-15 21l-4 1-7 1-7-1-3-1-3-1-3-2-6-3c-3-2-5-3-8-3-4 0-5 0-9 5-6 6-7 7-7 16 0 7 0 8 2 12l7 7 7 4 7 3 7 2a1246 1246 0 0 0 102-3l4-1 5-2 5-1 4-1 5-2 8-1 8-3a71 71 0 0 0 21-11c4 0 24-19 30-27a90 90 0 0 0 10-22c2-3 4-10 5-18l2-8v-15l-2-8c-1-8-3-15-5-18l-1-3c0-7-19-22-26-22l-4-2-8-1c-7 0-8-2-2-4l4-2 4-2 9-6a64 64 0 0 0 20-20l3-4 2-2 7-15 1-3 2-8 1-8c2-3 2-10 1-14l-2-8-1-8-2-4-2-3-4-5c-3-5-8-10-9-10l-5-3c-5-4-16-8-20-9l-5-2-11-1-11-1h-16zm18 36c8 3 11 7 17 21 2 6 1 27-2 30l-1 4-1 3-2 3c-3 8-13 22-20 27-4 3-5 3-11 3-7 0-7 0-8-3l-1-5c-2-4-2-11-1-14l2-11a230 230 0 0 1 8-43c0-4 4-12 7-15 3-2 8-2 13 0zm-6 127 15 15c2 4 2 6 3 15 0 12-2 26-6 30l-1 4-1 3-2 2-1 3-2 2-3 5-3 4-4 5a76 76 0 0 1-29 18l-2 1-10 1-9-1 1-6 2-11 2-7 3-15c1-15 2-18 3-19l1-7 1-6 1-6a50 50 0 0 1 10-22c0-1 2-4 5-6l5-5h9c7 1 9 1 12 3z"/>
</svg>
