<?xml version="1.0" standalone="no"?>
<!DOCTYPE svg PUBLIC "-//W3C//DTD SVG 20010904//EN"
 "http://www.w3.org/TR/2001/REC-SVG-20010904/DTD/svg10.dtd">
<svg version="1.0" xmlns="http://www.w3.org/2000/svg"
 width="900.000000pt" height="1116.000000pt" viewBox="0 0 900.000000 1116.000000"
 preserveAspectRatio="xMidYMid meet">
<metadata>
Created by potrace 1.10, written by Peter Selinger 2001-2011
</metadata>
<g transform="translate(0.000000,1116.000000) scale(0.100000,-0.100000)"
fill="#000000" stroke="none">
<path d="M4730 11146 c0 -16 -27 -29 -41 -20 -14 9 -118 -17 -175 -43 -28 -12
-57 -23 -64 -23 -6 0 -32 -13 -57 -30 -24 -16 -50 -30 -57 -30 -8 0 -19 -7
-26 -15 -7 -8 -18 -15 -25 -15 -7 0 -18 -7 -25 -15 -7 -8 -19 -15 -27 -15 -8
0 -28 -10 -43 -22 -15 -13 -54 -42 -86 -65 -33 -23 -81 -65 -108 -92 -41 -42
-50 -57 -49 -85 1 -43 8 -55 40 -67 19 -7 34 -4 66 12 23 12 54 28 69 35 35
19 112 18 128 -1 7 -8 18 -15 24 -15 7 0 23 -11 35 -24 21 -22 22 -32 22 -174
0 -88 -4 -159 -10 -171 -6 -11 -11 -44 -11 -75 0 -30 -4 -57 -9 -60 -4 -3 -11
-38 -15 -78 -3 -40 -11 -102 -17 -138 -5 -36 -13 -96 -17 -135 -4 -38 -11 -77
-17 -85 -9 -14 -19 -85 -29 -195 -7 -78 -23 -156 -34 -167 -7 -7 -12 -37 -12
-68 0 -31 -4 -60 -8 -66 -5 -5 -14 -43 -21 -84 -7 -41 -17 -83 -22 -92 -5 -10
-9 -28 -9 -42 0 -13 -7 -29 -15 -36 -8 -7 -12 -16 -9 -21 5 -9 -12 -83 -27
-111 -5 -10 -9 -26 -9 -37 0 -10 -6 -24 -14 -30 -8 -7 -18 -25 -21 -41 -3 -16
-13 -35 -22 -42 -9 -7 -22 -26 -30 -43 -8 -16 -21 -41 -28 -55 -21 -37 -19
-93 6 -124 20 -25 24 -26 87 -20 37 4 71 10 77 15 5 5 32 9 60 9 27 1 61 7 75
15 14 8 51 14 82 15 31 0 60 5 63 10 3 6 41 10 83 10 60 0 85 5 112 21 74 44
78 84 20 195 -22 42 -40 91 -40 108 -1 17 -7 42 -15 56 -20 34 -19 153 0 191
11 21 16 56 15 117 0 48 4 114 10 147 6 33 13 78 16 100 3 22 11 54 19 70 7
17 21 57 31 90 10 33 24 67 31 76 7 8 13 25 13 36 0 26 115 143 163 166 54 24
71 22 106 -18 30 -34 31 -39 31 -128 -1 -65 -5 -98 -15 -111 -8 -11 -15 -39
-15 -62 0 -24 -4 -46 -10 -49 -5 -3 -10 -18 -10 -33 -1 -32 -23 -118 -33 -128
-4 -4 -7 -24 -7 -45 0 -21 -4 -40 -9 -43 -18 -11 -43 -220 -43 -356 0 -175 8
-218 48 -263 19 -20 34 -42 34 -47 0 -6 36 -10 87 -10 81 0 137 10 173 31 8 5
25 13 37 18 11 6 24 14 27 20 4 6 33 27 64 48 31 21 89 68 128 106 39 37 78
67 87 67 8 0 35 -18 58 -41 23 -22 52 -45 63 -50 12 -5 28 -13 36 -18 46 -26
109 -36 200 -30 136 9 219 33 283 82 20 15 40 27 45 27 9 0 160 156 207 215
16 21 40 59 53 86 24 52 42 56 42 10 0 -16 7 -34 15 -41 10 -8 15 -30 15 -63
0 -33 7 -62 22 -86 49 -82 132 -151 184 -151 18 0 36 -4 39 -10 3 -5 21 -10
40 -10 19 0 37 5 40 10 3 6 23 10 44 10 21 0 52 7 67 15 16 8 36 15 45 15 55
0 319 244 378 350 69 123 81 151 81 180 0 51 -16 70 -58 70 -34 0 -46 -9 -127
-90 -49 -49 -95 -90 -101 -90 -6 0 -17 -7 -24 -15 -19 -23 -101 -19 -144 6
-45 26 -49 46 -43 230 7 212 12 276 24 291 6 7 13 33 17 58 3 25 10 74 15 110
6 36 13 85 17 110 3 25 10 49 15 55 5 5 9 30 9 55 0 35 5 52 23 68 28 26 69
42 110 42 75 0 202 87 233 159 21 50 17 72 -19 112 l-32 36 -50 -18 c-27 -11
-61 -19 -76 -19 -14 0 -29 -4 -35 -9 -16 -15 -81 -20 -99 -7 -14 10 -16 27
-11 126 4 63 7 158 9 210 l2 95 -48 9 c-37 6 -52 5 -65 -6 -9 -8 -24 -18 -33
-21 -21 -7 -89 -141 -89 -173 0 -13 -6 -27 -14 -31 -7 -4 -24 -26 -38 -48 -47
-74 -250 -255 -286 -255 -3 0 -21 -17 -39 -37 -45 -52 -45 -106 -2 -169 26
-38 35 -44 62 -42 18 1 42 -4 55 -11 21 -11 22 -17 22 -146 0 -78 -4 -136 -10
-140 -5 -3 -10 -19 -10 -35 0 -29 -16 -106 -30 -145 -4 -11 -13 -36 -20 -55
-6 -19 -14 -46 -17 -60 -10 -51 -36 -125 -49 -141 -8 -8 -14 -19 -14 -23 0 -5
-13 -24 -30 -43 -16 -18 -30 -38 -30 -43 0 -23 -161 -167 -221 -198 -58 -29
-72 -32 -155 -32 -54 0 -102 5 -116 13 -70 36 -118 100 -118 158 0 47 15 59
72 59 45 0 165 31 198 51 8 5 26 14 40 20 103 44 234 173 284 280 47 103 56
142 56 248 0 133 -22 190 -103 272 -80 81 -155 119 -234 119 -53 0 -109 -12
-143 -31 -8 -4 -40 -20 -70 -35 -55 -28 -225 -181 -241 -219 -5 -11 -25 -40
-44 -65 -42 -55 -105 -179 -105 -207 0 -11 -7 -26 -15 -33 -8 -7 -15 -23 -15
-36 0 -12 -4 -25 -8 -28 -8 -4 -15 -33 -38 -141 -3 -16 -8 -50 -11 -75 -3 -25
-10 -51 -16 -58 -15 -19 -15 -271 0 -291 7 -9 13 -39 13 -67 0 -47 -3 -55 -35
-83 -61 -53 -123 -54 -144 -2 -14 33 -9 176 9 261 6 30 13 75 16 100 3 25 12
59 19 75 8 17 18 73 24 125 13 125 25 188 39 202 8 8 12 64 12 168 0 154 0
157 -30 215 -34 66 -76 115 -99 115 -9 0 -25 7 -35 15 -14 11 -46 15 -106 15
-78 0 -92 -3 -144 -31 -31 -17 -71 -44 -89 -60 -17 -16 -36 -29 -41 -29 -5 0
-35 -27 -68 -60 -32 -33 -63 -60 -68 -60 -12 0 -2 110 11 125 5 5 9 21 9 35 0
14 6 34 14 45 7 11 16 53 20 93 3 41 11 82 16 92 6 10 10 31 10 47 0 15 7 37
15 47 8 11 15 34 15 52 0 18 5 36 10 39 6 3 10 23 10 43 1 20 9 62 20 92 11
30 19 64 20 76 0 11 8 36 17 55 11 21 19 66 21 119 4 84 4 85 -27 118 -18 18
-45 35 -61 39 -17 3 -30 12 -30 19 0 9 -12 14 -35 14 -23 0 -35 -5 -35 -14z
m1381 -1106 c23 0 59 -55 59 -90 -1 -14 -7 -34 -15 -44 -8 -11 -15 -36 -15
-55 0 -41 -30 -107 -80 -176 -20 -27 -39 -58 -43 -67 -3 -10 -12 -18 -20 -18
-7 0 -24 -11 -37 -25 -30 -32 -99 -68 -117 -61 -12 5 -14 20 -9 74 7 95 17
151 27 158 5 3 9 16 9 30 0 13 4 32 9 42 5 9 22 48 38 85 15 38 41 84 56 103
28 33 78 56 105 48 8 -2 22 -4 33 -4z"/>
<path d="M1215 10753 c-44 -8 -98 -16 -120 -20 -22 -3 -47 -11 -55 -18 -8 -7
-34 -18 -57 -24 -22 -6 -64 -27 -92 -46 -28 -19 -55 -35 -59 -35 -5 0 -26 -13
-47 -30 -21 -16 -42 -30 -47 -30 -12 0 -208 -192 -208 -203 0 -11 -39 -65 -82
-114 -21 -24 -38 -49 -38 -56 0 -8 -8 -25 -18 -38 -10 -13 -31 -49 -47 -79
-15 -30 -34 -67 -41 -82 -8 -14 -14 -37 -14 -51 0 -13 -7 -30 -15 -37 -8 -7
-15 -25 -15 -40 0 -15 -7 -33 -15 -40 -8 -7 -15 -23 -15 -37 0 -13 -7 -26 -15
-29 -10 -4 -15 -20 -15 -44 0 -22 -5 -42 -11 -46 -6 -3 -8 -16 -5 -29 4 -14 0
-28 -9 -35 -9 -7 -15 -29 -15 -51 0 -21 -5 -41 -10 -44 -6 -3 -10 -29 -10 -56
0 -33 -6 -56 -16 -66 -12 -13 -14 -28 -10 -67 4 -28 2 -67 -4 -86 -11 -38 -12
-346 -1 -475 4 -51 15 -96 29 -124 12 -25 22 -59 22 -77 0 -17 9 -43 20 -57
11 -14 20 -37 20 -52 0 -16 12 -38 30 -57 16 -16 30 -40 30 -52 0 -13 14 -42
30 -64 17 -23 30 -49 30 -57 0 -8 5 -15 10 -15 6 0 34 -25 63 -56 58 -63 162
-136 224 -158 71 -25 184 -37 325 -33 125 3 139 5 161 25 15 14 36 22 58 22
19 0 45 7 59 15 14 8 36 19 50 25 105 47 407 337 451 433 7 15 16 27 21 27 4
0 8 4 8 10 0 15 69 158 79 164 5 3 12 18 16 33 3 16 12 35 19 43 7 8 16 30 20
48 3 19 15 45 26 59 11 14 20 38 20 52 0 14 9 43 20 64 12 22 20 56 20 86 0
31 5 53 15 61 9 8 15 30 15 60 0 30 6 52 15 60 8 7 15 26 15 42 0 16 5 39 11
50 6 12 13 80 16 152 2 72 7 165 12 206 4 41 4 107 0 145 -4 39 -9 117 -9 175
-1 58 -7 114 -13 125 -19 34 -56 149 -51 157 3 4 -2 18 -10 30 -9 12 -16 36
-16 52 0 16 -13 51 -30 78 -16 26 -30 52 -30 57 0 11 -108 109 -166 150 -26
18 -62 38 -80 43 -17 4 -37 15 -44 23 -7 8 -25 15 -41 15 -15 0 -40 5 -56 11
-15 6 -69 13 -120 14 -51 2 -96 5 -100 7 -4 3 -44 -2 -88 -9z m186 -429 c55
-51 89 -89 89 -101 0 -7 14 -32 30 -55 22 -30 30 -52 30 -83 0 -22 5 -46 12
-53 24 -24 44 -199 40 -352 -1 -36 -2 -118 -2 -184 -1 -65 -5 -127 -11 -137
-10 -19 -25 -109 -34 -198 -3 -25 -9 -49 -15 -55 -5 -5 -10 -20 -10 -32 0 -13
-4 -26 -10 -29 -5 -3 -10 -15 -10 -26 0 -38 -32 -119 -56 -142 -13 -12 -24
-30 -24 -39 0 -9 -5 -20 -10 -23 -6 -4 -21 -23 -34 -43 -38 -59 -152 -172
-174 -172 -12 0 -24 -4 -27 -10 -4 -6 -52 -10 -113 -10 -100 0 -110 2 -157 29
-28 16 -68 49 -88 73 -20 23 -46 52 -57 64 -11 12 -23 36 -26 55 -4 19 -12 41
-19 49 -7 8 -16 33 -20 55 -4 22 -10 45 -14 50 -20 26 -31 136 -32 310 -2 217
5 296 32 343 11 18 19 48 19 65 0 18 9 58 20 90 11 31 20 62 20 68 0 7 18 49
40 95 22 46 40 92 40 103 0 28 19 36 38 18 13 -13 14 -23 4 -54 -12 -41 -8
-307 6 -423 12 -101 113 -280 158 -280 6 0 17 -7 24 -15 9 -11 33 -15 86 -15
106 0 154 34 210 148 34 69 11 181 -37 182 -9 0 -34 17 -55 38 -22 22 -49 44
-62 51 -26 14 -72 83 -72 109 0 10 -5 23 -12 30 -27 27 -34 79 -28 223 4 121
8 150 23 166 9 11 17 26 17 34 0 20 45 61 95 89 51 27 143 24 176 -6z"/>
<path d="M3055 10051 c-3 -6 -14 -11 -24 -11 -20 0 -126 -53 -151 -75 -9 -8
-21 -15 -26 -15 -6 0 -30 -20 -54 -45 -24 -25 -50 -45 -57 -45 -16 0 -17 12
-2 27 5 5 9 34 7 64 l-3 54 -52 3 c-54 3 -99 -18 -130 -60 -7 -9 -27 -19 -44
-23 -17 -4 -33 -13 -36 -21 -3 -8 -11 -14 -18 -14 -7 0 -30 -14 -51 -30 -22
-17 -48 -37 -59 -45 -10 -8 -24 -15 -31 -15 -6 0 -30 -13 -52 -30 -23 -16 -46
-30 -50 -30 -5 0 -17 -16 -27 -34 -18 -33 -18 -36 -2 -54 9 -10 17 -22 17 -27
0 -5 12 -21 26 -36 38 -40 69 -178 45 -202 -6 -6 -11 -46 -11 -91 -1 -51 -6
-90 -15 -106 -8 -14 -14 -44 -15 -67 0 -23 -4 -44 -9 -47 -4 -3 -11 -47 -15
-97 -4 -51 -13 -104 -21 -120 -8 -15 -15 -50 -15 -78 0 -27 -4 -52 -9 -55 -4
-3 -11 -27 -15 -53 -3 -27 -11 -75 -17 -108 -5 -33 -13 -82 -16 -110 -3 -27
-11 -57 -19 -66 -7 -8 -13 -28 -13 -45 1 -50 -13 -154 -22 -160 -5 -3 -9 -24
-9 -48 0 -23 -5 -47 -12 -54 -11 -11 -17 -40 -38 -179 -5 -34 -16 -76 -25 -92
-8 -17 -15 -41 -15 -55 0 -14 -9 -41 -21 -60 -34 -58 -4 -126 56 -126 12 0 25
-4 30 -9 6 -5 46 -12 90 -14 96 -6 220 -32 231 -48 3 -5 16 -9 30 -9 14 0 34
-5 45 -11 36 -19 132 -40 209 -46 41 -3 87 -12 102 -19 37 -19 177 -18 202 1
11 8 32 15 46 15 25 0 110 35 120 50 3 4 21 12 41 19 34 11 119 93 175 168 30
40 54 100 54 137 0 17 7 40 15 50 8 11 15 34 15 51 0 17 -7 40 -15 51 -8 10
-15 30 -15 44 0 17 -17 42 -50 75 -41 41 -53 48 -67 39 -13 -8 -25 -6 -49 8
-21 12 -35 15 -39 8 -3 -5 -24 -10 -46 -10 -32 0 -47 -7 -85 -42 -25 -24 -54
-58 -66 -76 l-20 -33 28 -42 c59 -87 59 -153 0 -215 -51 -54 -108 -74 -196
-69 -96 5 -161 38 -211 104 -42 56 -55 88 -65 163 -13 94 -2 284 17 304 5 6 9
27 9 47 0 21 5 41 10 44 6 3 10 14 10 24 0 10 7 24 15 31 14 11 22 7 58 -28
23 -23 59 -48 79 -56 20 -9 39 -20 43 -26 10 -16 179 -12 212 4 15 8 44 21 63
28 66 23 290 274 290 323 0 6 8 19 18 29 11 9 25 35 31 59 7 23 19 49 26 57 7
8 15 26 18 40 16 68 31 118 43 142 8 14 14 40 14 56 0 17 4 33 9 36 4 3 11 29
15 58 3 29 12 78 18 108 15 75 22 490 8 490 -5 0 -10 9 -10 21 0 32 -28 121
-48 150 -9 15 -29 45 -45 68 -28 42 -66 70 -151 111 -54 26 -199 40 -211 21z
m-29 -407 c20 -20 43 -53 51 -73 8 -20 20 -39 25 -42 13 -8 12 -409 -2 -423
-5 -5 -10 -19 -10 -30 0 -21 -17 -80 -31 -108 -5 -10 -9 -26 -9 -37 0 -10 -7
-24 -15 -31 -8 -7 -15 -19 -15 -27 0 -30 -54 -110 -108 -160 -55 -52 -57 -53
-117 -53 -56 0 -65 3 -102 35 -22 19 -46 49 -53 67 -7 18 -20 41 -28 50 -20
24 -19 272 2 319 15 35 31 111 41 191 3 25 13 52 20 58 8 7 15 20 15 29 0 18
24 68 55 116 27 40 115 125 130 125 7 0 18 7 25 15 7 9 29 15 51 15 31 0 45
-7 75 -36z"/>
<path d="M7570 8860 c-8 -5 -28 -10 -44 -10 -34 0 -156 -76 -156 -97 0 -7 -18
-30 -40 -51 -21 -20 -51 -63 -65 -94 -15 -32 -31 -60 -36 -63 -5 -4 -9 -19 -9
-34 0 -15 -4 -31 -9 -36 -16 -17 -16 -187 0 -215 20 -35 121 -140 135 -140 6
0 17 -7 24 -15 9 -10 31 -15 72 -15 51 0 74 7 142 41 87 43 125 74 158 128 12
18 32 45 45 59 30 32 63 106 63 141 0 14 7 35 15 45 19 25 19 75 0 100 -8 11
-15 34 -15 52 0 17 -7 37 -15 44 -8 7 -15 18 -15 25 0 21 -113 115 -150 125
-71 18 -85 20 -100 10z"/>
<path d="M6600 8470 c-19 -22 -37 -48 -40 -58 -14 -45 -53 -122 -92 -180 -15
-24 -28 -49 -28 -55 0 -7 -12 -24 -27 -37 -16 -14 -46 -47 -67 -74 -52 -64
-182 -156 -221 -156 -13 0 -105 -92 -105 -105 0 -5 -10 -19 -21 -31 -15 -16
-21 -35 -21 -66 1 -65 1 -68 15 -68 6 0 22 -11 35 -25 18 -19 35 -25 80 -27
81 -4 87 -20 85 -207 -1 -85 -6 -148 -12 -154 -6 -6 -11 -36 -11 -67 -1 -32
-7 -63 -15 -74 -8 -11 -15 -39 -15 -62 0 -24 -4 -45 -9 -48 -4 -3 -11 -40 -15
-82 -4 -43 -14 -87 -22 -98 -8 -11 -14 -31 -14 -43 0 -28 -53 -142 -94 -202
-40 -59 -112 -131 -156 -157 -50 -30 -91 -18 -114 34 -14 31 -16 57 -12 133 7
139 16 197 32 210 8 6 14 29 14 50 0 21 4 41 10 44 5 3 10 20 10 38 -1 57 15
161 28 184 7 12 12 46 12 77 0 30 5 58 10 61 13 8 13 228 0 269 -5 17 -12 43
-15 58 -7 34 -98 134 -139 151 -83 36 -105 39 -174 26 -37 -7 -71 -16 -77 -21
-5 -4 -18 -8 -30 -8 -11 0 -40 -14 -64 -30 -24 -17 -49 -30 -55 -30 -6 0 -51
-39 -101 -87 l-90 -88 -3 39 c-2 21 1 43 7 49 19 19 13 72 -12 95 -29 27 -124
32 -133 7 -4 -8 -14 -15 -25 -15 -10 0 -22 -6 -26 -13 -9 -13 -78 -61 -133
-90 -19 -11 -42 -25 -51 -33 -8 -8 -20 -14 -25 -14 -20 0 -115 -74 -134 -105
-29 -47 -25 -70 23 -123 23 -26 48 -57 55 -69 14 -27 16 -169 2 -178 -5 -3
-10 -28 -10 -54 0 -26 -7 -56 -15 -67 -8 -11 -15 -41 -15 -71 0 -28 -4 -54 -9
-57 -9 -6 -22 -85 -21 -129 0 -15 -6 -38 -15 -50 -8 -12 -15 -36 -15 -54 0
-17 -4 -34 -9 -37 -4 -3 -11 -31 -14 -62 -3 -31 -13 -64 -21 -73 -9 -10 -16
-23 -16 -29 0 -15 -90 -108 -150 -156 -58 -46 -79 -45 -118 3 -25 31 -32 49
-32 83 0 24 -5 49 -11 55 -7 7 -9 31 -5 65 4 29 10 87 14 128 4 41 13 85 20
97 6 12 12 40 12 62 0 22 5 43 10 46 6 4 10 21 10 38 0 62 12 126 26 138 8 7
14 30 14 60 0 26 5 51 10 54 6 3 10 19 10 35 0 34 18 117 31 142 5 10 9 36 9
59 0 22 5 50 12 62 13 24 15 39 24 139 6 63 5 69 -17 88 -39 32 -34 33 -203
-62 -37 -21 -73 -38 -80 -38 -8 0 -19 -7 -26 -15 -7 -8 -23 -15 -36 -15 -14 0
-32 -4 -42 -9 -9 -4 -38 -18 -64 -29 -35 -16 -52 -32 -68 -61 -26 -52 -26 -55
10 -126 24 -47 30 -73 30 -122 0 -34 -5 -65 -10 -68 -6 -3 -10 -37 -10 -74 0
-46 -5 -72 -14 -80 -7 -6 -16 -35 -20 -64 -11 -102 -31 -196 -43 -209 -7 -6
-13 -23 -13 -37 0 -29 -31 -124 -66 -199 -13 -29 -24 -59 -24 -67 0 -7 -5 -17
-10 -20 -6 -4 -21 -27 -34 -53 -25 -48 -78 -105 -128 -135 -59 -37 -131 -12
-163 57 -13 27 -15 57 -11 147 6 143 19 260 30 277 4 8 10 30 11 50 2 20 9 62
15 92 6 30 14 76 17 102 2 26 11 52 19 59 8 6 14 29 14 50 0 21 4 40 9 43 5 3
12 42 16 86 4 48 12 84 21 91 8 6 14 29 14 50 0 21 5 41 10 44 6 3 10 36 10
73 0 126 -37 139 -195 67 -27 -12 -65 -26 -82 -29 -18 -4 -35 -12 -38 -17 -4
-5 -17 -9 -29 -9 -13 0 -29 -7 -36 -15 -7 -8 -20 -15 -29 -15 -15 0 -32 -6
-116 -39 -41 -16 -65 -61 -65 -125 0 -40 5 -57 20 -71 11 -10 20 -28 20 -41 0
-13 5 -26 10 -29 6 -3 10 -18 10 -33 1 -15 7 -38 15 -52 20 -34 20 -134 0
-150 -11 -9 -15 -32 -15 -81 0 -37 -4 -70 -9 -73 -5 -3 -11 -32 -14 -63 -4
-32 -11 -83 -17 -113 -6 -30 -14 -80 -16 -110 -3 -30 -12 -69 -20 -87 -21 -45
-20 -295 1 -313 8 -7 15 -21 15 -32 0 -51 68 -130 155 -178 45 -25 65 -30 123
-30 50 0 73 4 82 15 7 8 26 15 43 15 43 0 115 28 158 62 20 15 41 28 45 28 5
0 55 48 111 106 57 58 107 103 113 99 5 -3 10 -16 10 -28 0 -30 69 -127 105
-148 21 -12 53 -18 102 -18 66 -1 80 3 149 39 60 31 101 64 181 145 57 58 110
105 116 105 17 0 9 -101 -10 -122 -14 -15 -13 -21 7 -53 21 -34 23 -35 89 -35
37 0 72 5 79 12 19 19 113 34 294 45 49 3 81 10 89 19 6 8 17 14 23 14 22 0
69 58 63 77 -3 10 -17 52 -31 93 -15 41 -26 91 -26 111 0 20 -7 42 -15 49 -21
18 -21 373 0 410 8 14 14 48 15 77 0 28 4 54 9 57 5 3 12 34 16 68 4 35 14 72
21 83 8 11 14 28 14 37 0 38 83 184 133 236 28 28 56 52 61 52 5 0 17 7 26 15
9 8 38 16 65 17 42 2 50 -1 71 -27 42 -52 48 -97 29 -238 -4 -32 -12 -60 -16
-63 -5 -3 -9 -16 -9 -28 0 -13 -6 -29 -14 -35 -8 -6 -16 -24 -19 -39 -10 -49
-29 -117 -42 -147 -16 -38 -30 -84 -45 -155 -7 -30 -16 -63 -21 -72 -5 -10 -9
-40 -9 -67 0 -27 -7 -62 -15 -77 -8 -16 -15 -55 -15 -89 0 -34 7 -73 15 -89 8
-15 15 -39 15 -53 0 -46 53 -115 117 -150 27 -16 209 -18 218 -3 3 6 15 10 27
10 11 0 40 14 65 30 24 17 47 30 51 30 19 0 161 120 167 141 4 11 21 34 39 52
34 33 87 109 99 140 12 32 32 13 35 -34 2 -24 7 -48 13 -53 5 -6 9 -20 9 -33
0 -44 74 -135 137 -170 30 -17 205 -17 258 0 22 7 51 19 65 27 14 9 34 21 45
28 11 7 30 16 43 22 12 5 22 13 22 17 0 5 17 19 37 33 58 40 103 82 126 120
11 19 27 39 34 43 7 4 13 17 13 27 0 10 6 23 14 27 11 7 32 43 95 163 34 65
41 87 41 121 0 49 -25 89 -54 89 -25 0 -82 -57 -110 -110 -22 -41 -115 -140
-132 -140 -6 0 -21 -9 -34 -20 -13 -11 -36 -20 -53 -20 -43 0 -97 36 -97 65 0
12 -7 28 -15 35 -22 18 -21 306 0 334 10 14 15 45 15 97 0 43 5 81 10 84 6 4
11 28 11 53 -1 81 11 166 25 187 8 10 14 39 14 62 0 24 4 51 9 61 5 9 16 46
23 82 l14 65 55 3 c48 2 74 10 141 43 10 5 27 9 37 9 11 0 60 38 110 86 101
95 111 120 66 162 -22 22 -31 23 -92 18 -178 -17 -246 -18 -254 -4 -12 18 -11
146 1 153 6 3 10 35 10 71 0 38 6 77 15 94 17 34 14 193 -6 216 -6 8 -28 14
-48 14 -29 -1 -43 -8 -71 -40z"/>
<path d="M8390 8136 c-36 -13 -85 -37 -110 -55 -25 -17 -56 -39 -70 -48 -38
-25 -120 -106 -120 -118 0 -6 -20 -31 -45 -55 -25 -25 -60 -70 -77 -100 -17
-30 -37 -59 -44 -63 -8 -4 -14 -14 -14 -22 0 -15 -7 -32 -59 -148 -17 -37 -31
-73 -31 -80 0 -7 -7 -22 -15 -33 -8 -10 -15 -33 -15 -49 0 -17 -7 -40 -15 -52
-9 -13 -17 -57 -20 -119 -4 -55 -11 -108 -17 -120 -11 -23 -5 -212 10 -330 12
-98 58 -189 135 -266 57 -57 141 -108 177 -108 9 0 21 -5 27 -11 27 -27 332 7
368 42 5 5 17 9 26 9 9 0 21 6 27 13 6 6 33 21 62 32 40 15 72 42 148 121 106
111 128 138 160 202 12 23 31 60 42 82 48 91 65 221 32 239 -30 16 -61 -8
-119 -92 -67 -96 -108 -138 -164 -166 -24 -12 -51 -26 -59 -31 -54 -32 -89
-40 -169 -40 -73 0 -93 4 -137 27 -49 26 -94 77 -94 108 0 8 -4 15 -9 15 -9 0
-17 31 -28 102 -6 42 -2 44 97 52 112 8 250 58 271 98 5 10 18 18 29 18 38 0
270 239 270 278 0 5 14 35 30 67 17 32 30 73 30 91 0 17 7 37 15 44 20 17 20
164 0 200 -8 14 -14 37 -15 51 0 14 -11 41 -25 60 -13 19 -29 43 -34 55 -12
26 -72 74 -128 103 -61 31 -230 29 -323 -3z m129 -301 c20 -20 24 -33 24 -82
0 -32 -4 -80 -8 -108 -8 -53 -64 -175 -96 -211 -10 -11 -19 -27 -19 -35 0 -16
-32 -48 -75 -74 -16 -10 -34 -23 -40 -29 -23 -25 -84 -48 -110 -42 -24 6 -26
11 -21 34 4 15 10 51 13 80 3 29 9 55 14 58 5 3 9 18 9 34 0 16 6 44 14 62 8
18 22 58 31 88 22 70 70 168 98 198 33 36 88 62 117 56 14 -3 36 -16 49 -29z"/>
<path d="M7589 7966 c-13 -13 -35 -27 -49 -31 -14 -4 -45 -20 -70 -35 -25 -15
-72 -40 -105 -55 -33 -14 -67 -30 -75 -35 -8 -5 -38 -21 -67 -34 -48 -24 -93
-75 -93 -106 0 -7 14 -29 30 -50 17 -21 30 -46 30 -56 1 -11 7 -30 15 -44 17
-30 19 -86 4 -128 -6 -16 -12 -74 -14 -129 -2 -54 -9 -159 -15 -233 -6 -74
-13 -180 -16 -235 -3 -55 -11 -106 -17 -114 -11 -13 -22 -92 -34 -251 -12
-156 -16 -186 -26 -199 -7 -8 -15 -41 -19 -75 -7 -60 -17 -121 -39 -221 -5
-27 -13 -66 -16 -85 -3 -19 -9 -40 -15 -46 -5 -7 -11 -28 -13 -49 -3 -20 -12
-46 -20 -58 -8 -12 -15 -36 -15 -53 0 -17 -10 -44 -22 -59 -13 -16 -34 -51
-48 -79 -43 -86 -84 -145 -101 -146 -9 0 -23 -7 -30 -17 -8 -9 -43 -29 -77
-45 -83 -37 -143 -37 -195 -3 -70 48 -43 107 75 164 44 20 82 49 112 82 44 49
46 54 46 110 0 82 -52 159 -136 199 -48 24 -184 26 -221 3 -12 -7 -33 -13 -47
-13 -69 0 -286 -167 -286 -220 0 -9 -9 -25 -20 -35 -11 -10 -20 -28 -20 -41 0
-13 -4 -26 -10 -29 -12 -8 -14 -228 -1 -253 4 -9 17 -35 27 -57 47 -96 194
-205 280 -205 18 0 36 -4 39 -10 8 -13 242 -13 250 0 3 6 28 10 54 10 31 0 53
5 61 15 7 8 29 15 49 15 21 0 46 7 57 15 10 8 29 15 41 15 12 0 25 4 28 10 3
5 25 19 48 30 23 11 55 28 70 38 51 31 219 205 239 246 27 56 44 86 57 99 6 6
11 20 11 32 0 12 4 25 9 31 11 11 51 127 51 147 0 8 6 20 14 26 8 7 16 28 19
49 3 20 12 66 21 102 10 36 15 73 13 82 -3 10 1 22 9 29 8 6 14 22 14 35 0 14
4 32 9 42 11 21 31 128 31 165 0 14 5 29 10 32 6 3 10 32 10 64 0 32 5 62 12
69 14 14 23 77 39 267 5 69 16 131 24 147 10 16 15 54 15 100 0 41 4 78 9 83
5 6 12 37 15 70 3 33 8 94 12 135 3 41 10 79 15 84 5 6 9 41 9 79 0 37 5 78
11 90 7 11 13 46 15 76 1 31 8 97 14 146 6 50 14 135 16 189 5 95 4 101 -18
118 -32 24 -61 22 -89 -6z"/>
<path d="M1089 7396 c-3 -3 -62 -10 -130 -16 -200 -16 -315 -35 -341 -57 -9
-8 -21 -12 -26 -9 -5 3 -25 -4 -45 -14 -20 -11 -45 -20 -56 -20 -10 0 -35 -13
-56 -30 -21 -16 -41 -30 -45 -30 -20 0 -173 -125 -194 -158 -13 -21 -31 -43
-40 -51 -9 -7 -16 -19 -16 -26 0 -6 -9 -20 -19 -29 -11 -10 -25 -32 -32 -49
-7 -18 -18 -39 -24 -47 -7 -8 -15 -28 -19 -45 -16 -71 -27 -118 -35 -162 -11
-55 -14 -306 -4 -316 3 -4 8 -19 9 -34 2 -16 11 -46 20 -68 20 -46 151 -185
174 -185 9 0 31 -13 50 -30 20 -16 47 -29 62 -30 15 0 30 -4 33 -10 4 -6 53
-10 115 -10 62 0 111 4 115 10 3 6 15 10 26 10 54 0 219 162 219 215 0 9 6 28
14 43 8 15 17 44 21 63 6 32 3 39 -20 58 -20 15 -42 21 -77 21 -57 0 -91 15
-134 62 -38 40 -74 147 -74 220 0 76 49 205 94 247 14 14 26 30 26 36 0 7 12
21 26 31 14 10 47 35 73 55 27 19 64 41 82 48 19 7 49 19 67 27 46 20 185 19
202 -1 7 -8 22 -15 34 -15 26 0 66 -38 66 -63 0 -9 5 -19 10 -22 6 -3 10 -37
10 -76 0 -38 5 -78 12 -88 9 -15 7 -25 -10 -52 -16 -28 -22 -58 -28 -161 -4
-89 -11 -131 -20 -139 -9 -8 -14 -34 -14 -78 0 -37 -4 -71 -9 -76 -5 -6 -12
-46 -15 -90 -3 -44 -10 -111 -17 -150 -6 -38 -13 -115 -15 -170 -3 -55 -10
-106 -16 -113 -6 -7 -13 -32 -15 -55 -11 -150 -16 -183 -24 -191 -5 -6 -9 -28
-9 -51 0 -23 -6 -47 -12 -53 -7 -7 -16 -43 -20 -80 -4 -37 -12 -94 -18 -127
-6 -33 -13 -77 -14 -97 -2 -20 -8 -42 -12 -50 -5 -7 -12 -33 -16 -58 -30 -186
-37 -223 -47 -233 -6 -6 -11 -30 -11 -53 0 -23 -5 -44 -11 -46 -6 -2 -17 -33
-25 -68 -24 -115 -26 -125 -39 -140 -7 -8 -16 -25 -19 -37 -4 -12 -25 -36 -47
-54 -35 -28 -50 -32 -112 -36 -96 -5 -143 -21 -173 -56 -43 -51 -25 -96 55
-138 22 -11 44 -25 47 -30 3 -5 61 -9 128 -9 98 0 126 3 136 15 7 8 23 15 35
15 31 0 127 31 146 47 8 7 20 13 25 13 15 0 124 101 124 116 0 7 7 19 15 27
23 24 162 299 169 337 4 19 17 55 28 80 19 41 38 115 57 227 4 23 12 48 18 55
10 13 14 34 32 168 4 36 15 82 25 104 9 21 16 49 16 62 0 33 18 39 44 15 12
-12 27 -21 33 -21 6 0 16 -7 23 -15 7 -8 27 -17 46 -21 19 -3 37 -10 40 -15 7
-12 201 -11 209 1 3 6 16 10 28 10 12 1 40 9 62 20 22 11 47 19 56 20 8 0 28
14 44 30 16 17 33 30 39 30 19 0 145 91 168 121 13 17 41 52 64 77 65 76 104
134 104 157 0 12 13 36 30 53 17 18 30 40 30 49 0 10 7 27 15 37 8 11 15 33
15 48 0 18 9 38 24 51 14 13 26 40 31 67 4 25 14 57 21 72 8 15 14 38 14 51 0
12 4 27 9 33 14 14 22 101 28 289 4 163 -4 252 -28 297 -5 10 -9 35 -9 57 0
25 -5 41 -15 45 -8 3 -15 12 -15 20 0 66 -131 207 -230 249 -62 26 -73 27
-212 26 -111 -2 -151 -5 -159 -15 -6 -8 -19 -14 -29 -14 -9 0 -36 -13 -58 -30
-23 -16 -46 -30 -51 -30 -5 0 -40 -34 -78 -75 -85 -91 -103 -96 -103 -24 0 39
-6 58 -24 80 -13 15 -26 32 -28 36 -7 16 -95 70 -153 93 -33 13 -64 28 -70 32
-5 4 -21 8 -36 8 -15 0 -30 4 -33 9 -7 10 -50 18 -166 30 -47 5 -96 12 -110
16 -14 3 -28 4 -31 1z m1015 -491 c11 -8 29 -15 41 -15 31 0 95 -88 95 -132 0
-19 7 -43 15 -54 18 -24 21 -184 3 -202 -11 -11 -27 -104 -32 -192 -3 -44 -25
-110 -37 -110 -5 0 -9 -13 -9 -29 0 -17 -4 -33 -10 -36 -5 -3 -10 -13 -10 -22
0 -20 -47 -120 -60 -128 -6 -3 -10 -15 -10 -26 0 -11 -7 -22 -15 -25 -8 -4
-15 -12 -15 -20 0 -22 -104 -119 -153 -144 -35 -18 -54 -21 -89 -16 -49 7
-106 38 -115 62 -3 9 -16 27 -29 41 -13 14 -26 44 -29 67 -7 43 0 249 10 316
3 19 8 64 11 100 4 36 13 74 20 85 8 11 14 38 14 60 0 23 4 45 8 51 5 5 14 29
21 54 13 50 18 61 56 140 34 69 71 123 93 133 9 4 35 18 57 31 48 28 138 34
169 11z"/>
<path d="M7960 5386 c-54 -18 -162 -73 -194 -98 -26 -21 -65 -56 -120 -106
-21 -19 -89 -109 -100 -132 -3 -8 -22 -40 -41 -70 -19 -30 -40 -66 -46 -80 -6
-14 -19 -41 -29 -60 -9 -19 -27 -66 -39 -105 -13 -38 -27 -83 -33 -100 -19
-54 -30 -128 -32 -220 -2 -49 -6 -98 -11 -108 -6 -15 -4 -106 8 -257 6 -76 65
-195 128 -258 49 -47 83 -67 154 -88 50 -15 275 -2 314 19 19 9 44 17 56 17
13 0 28 7 35 15 7 8 21 15 31 15 56 0 349 295 349 351 0 10 5 21 10 24 17 10
80 166 80 196 0 9 7 22 15 29 18 15 20 61 3 78 -19 19 -61 13 -85 -12 -13 -13
-23 -27 -23 -30 0 -25 -184 -230 -222 -246 -13 -5 -30 -14 -38 -19 -33 -21
-122 -41 -180 -41 -95 0 -158 43 -214 146 -27 50 -27 53 -11 78 10 14 26 26
36 26 10 0 21 5 24 10 3 6 24 10 45 10 21 0 42 5 45 10 3 6 13 10 22 10 21 0
159 68 173 86 7 8 18 14 25 14 7 0 34 20 59 45 26 25 53 45 61 45 8 0 21 13
30 29 8 16 29 44 46 63 53 58 109 176 109 235 0 17 5 35 10 38 12 7 13 157 2
170 -5 6 -14 36 -21 68 -7 31 -23 70 -37 86 -13 16 -24 33 -24 38 0 16 -37 44
-91 69 -43 20 -66 24 -147 23 -54 -1 -113 -6 -132 -13z m78 -292 c22 -15 23
-22 19 -98 -5 -89 -22 -173 -41 -196 -7 -8 -19 -30 -26 -48 -16 -41 -168 -196
-214 -217 -19 -9 -43 -15 -53 -13 -22 4 -30 53 -12 74 7 9 16 37 20 62 8 46
21 108 35 165 3 15 10 30 15 33 5 3 9 13 9 23 0 17 21 69 40 101 6 8 16 29 24
46 32 72 128 107 184 68z"/>
<path d="M5030 5285 c-7 -8 -19 -15 -27 -15 -35 0 -114 -59 -207 -155 -56 -57
-107 -111 -115 -120 -21 -26 -37 -3 -22 33 7 16 11 61 9 103 l-3 74 -46 3
c-29 2 -52 -2 -60 -10 -8 -8 -36 -28 -64 -45 -27 -18 -57 -39 -66 -48 -9 -8
-23 -15 -32 -15 -9 0 -19 -5 -22 -10 -4 -6 -23 -17 -43 -26 -71 -29 -109 -63
-120 -105 -11 -44 -6 -76 15 -101 21 -24 36 -86 35 -143 -2 -84 -13 -169 -25
-183 -6 -8 -15 -41 -19 -75 -5 -34 -11 -73 -13 -87 -3 -14 -8 -49 -11 -77 -4
-29 -13 -58 -20 -64 -8 -6 -14 -23 -14 -38 -1 -68 -53 -148 -115 -176 -87 -38
-153 -45 -180 -19 -14 14 -15 34 -11 128 7 154 13 214 22 234 4 9 11 42 15 72
4 30 13 80 19 110 6 30 14 72 17 93 3 20 9 40 14 43 5 3 9 22 9 43 0 21 7 52
15 67 8 16 18 50 21 77 4 26 11 50 15 53 5 3 9 16 9 29 0 13 5 27 10 30 15 9
12 51 -5 65 -10 9 -31 11 -61 6 -40 -5 -56 -15 -112 -71 -36 -36 -73 -65 -82
-65 -9 0 -36 21 -60 46 -66 66 -118 88 -213 87 -57 0 -82 -5 -96 -17 -10 -9
-30 -16 -44 -16 -15 0 -27 -5 -27 -10 0 -6 -11 -15 -24 -19 -13 -5 -50 -34
-82 -63 -32 -30 -67 -57 -77 -61 -9 -4 -21 -17 -26 -29 -5 -13 -21 -34 -35
-47 -14 -14 -26 -30 -26 -37 0 -7 -7 -19 -15 -27 -8 -8 -24 -32 -35 -53 -12
-22 -25 -46 -29 -54 -33 -60 -51 -100 -51 -114 0 -9 -4 -24 -9 -34 -22 -41
-40 -92 -56 -162 -9 -41 -22 -86 -28 -100 -39 -90 -39 -463 0 -512 6 -7 13
-25 17 -40 10 -44 100 -132 169 -167 67 -33 136 -41 156 -17 6 7 25 16 41 20
20 3 62 37 125 100 52 51 95 98 95 103 0 15 56 74 63 66 4 -3 7 -17 7 -31 0
-30 25 -76 65 -120 53 -59 110 -77 149 -47 11 8 27 15 36 15 15 0 144 130 276
276 32 36 56 54 63 50 7 -5 9 -12 3 -19 -5 -7 -12 -27 -16 -45 -3 -19 -13 -48
-22 -67 -9 -20 -14 -52 -12 -81 3 -47 4 -49 40 -58 37 -9 109 5 133 26 5 4 25
8 45 8 20 0 41 5 48 12 11 11 39 17 190 37 59 8 74 16 124 64 24 23 23 38 -8
105 -15 31 -31 73 -37 92 -15 48 -21 450 -7 464 5 5 10 31 10 56 0 25 7 55 15
66 8 10 15 28 15 39 0 25 32 118 46 137 6 7 16 28 24 46 15 38 107 135 149
157 55 28 100 15 126 -35 19 -37 20 -130 0 -156 -8 -10 -15 -39 -15 -65 0 -25
-4 -49 -8 -55 -5 -5 -14 -43 -21 -84 -7 -41 -17 -83 -22 -92 -5 -10 -9 -36 -9
-57 0 -22 -4 -42 -9 -45 -20 -13 -31 -285 -14 -371 15 -73 26 -95 75 -141 46
-44 91 -64 143 -64 44 0 128 26 158 50 14 11 29 20 34 20 13 0 183 170 183
183 0 6 6 18 13 26 7 9 22 36 32 61 10 25 25 52 32 61 10 12 10 19 -3 37 -22
31 -45 27 -85 -14 -37 -39 -84 -64 -122 -64 -29 0 -77 39 -77 63 0 9 -5 37
-12 62 -10 36 -10 50 0 65 7 11 12 49 12 84 0 36 5 68 10 71 6 3 10 18 10 32
0 37 20 144 31 165 5 10 9 41 9 69 0 32 6 56 15 66 13 13 15 40 12 167 -2 97
-9 165 -18 189 -8 21 -39 63 -71 93 l-57 54 -69 0 c-50 0 -73 -4 -82 -15z
m-1491 -551 c59 -26 81 -75 81 -182 0 -62 -4 -94 -15 -108 -8 -10 -15 -31 -15
-46 0 -15 -4 -30 -10 -33 -5 -3 -10 -18 -10 -33 0 -28 -21 -96 -33 -108 -4 -4
-7 -20 -7 -34 0 -15 -7 -33 -15 -40 -8 -7 -15 -19 -15 -27 0 -16 -55 -119 -76
-144 -8 -8 -14 -19 -14 -23 0 -22 -67 -86 -105 -100 -52 -20 -85 -9 -115 39
-18 28 -20 50 -20 176 1 111 4 148 15 163 8 11 15 34 15 50 0 52 45 179 103
291 47 92 67 116 125 144 69 35 67 35 111 15z"/>
<path d="M7173 5116 c-17 -8 -55 -30 -85 -50 -29 -20 -58 -36 -64 -36 -6 0
-22 -8 -35 -18 -13 -10 -73 -45 -134 -76 -60 -32 -114 -64 -118 -72 -4 -8 -20
-14 -35 -14 -32 0 -52 -16 -52 -41 0 -10 -6 -19 -12 -22 -21 -6 9 -53 53 -81
64 -43 71 -71 65 -248 -7 -199 -18 -318 -34 -345 -6 -12 -12 -39 -12 -60 0
-22 -4 -43 -9 -48 -5 -6 -12 -37 -15 -70 -10 -104 -13 -116 -24 -127 -7 -7
-12 -28 -12 -48 0 -20 -4 -40 -9 -45 -4 -6 -14 -39 -20 -75 -12 -62 -23 -97
-42 -130 -4 -8 -18 -33 -29 -55 -42 -79 -183 -195 -237 -195 -10 0 -31 -7 -47
-15 -19 -10 -58 -15 -118 -15 -84 0 -92 2 -139 32 -46 31 -49 35 -49 74 0 35
5 47 30 67 16 14 40 29 52 32 13 4 47 30 76 58 l52 51 0 77 c0 72 -2 78 -32
111 -45 49 -88 68 -150 68 -56 0 -138 -25 -151 -47 -4 -7 -17 -13 -27 -13 -10
0 -23 -6 -27 -13 -4 -8 -23 -22 -41 -33 -42 -24 -104 -115 -127 -186 -10 -29
-24 -68 -31 -86 -18 -42 -17 -140 1 -172 8 -14 14 -34 15 -44 1 -71 116 -208
207 -247 72 -31 92 -33 288 -33 226 0 295 9 367 45 10 5 23 9 30 9 33 1 130
59 202 120 22 20 54 44 69 54 15 9 31 25 34 34 3 9 17 29 31 44 13 15 30 36
36 47 6 11 28 49 49 86 20 36 37 74 37 85 0 10 4 21 9 24 4 3 11 20 15 37 3
17 12 45 20 62 14 34 31 91 41 142 3 17 11 48 16 70 6 22 13 58 16 80 2 22 10
54 18 70 7 17 16 72 20 123 4 50 11 95 16 98 5 3 9 26 9 52 0 26 6 56 14 67 8
11 16 43 19 70 3 28 11 82 18 120 6 39 12 91 13 117 2 26 7 53 13 60 6 7 13
38 16 68 6 61 19 131 38 200 6 25 12 83 13 130 l1 85 -35 2 c-19 2 -49 -4 -67
-11z"/>
<path d="M2566 4947 c-22 -14 -107 -103 -120 -125 -26 -45 -11 -146 34 -227
32 -59 41 -117 37 -230 -6 -126 -15 -193 -28 -201 -5 -3 -9 -14 -9 -24 0 -10
-6 -31 -14 -47 -8 -15 -22 -55 -32 -88 -10 -33 -22 -67 -28 -75 -20 -27 -46
-78 -46 -89 0 -12 -38 -67 -80 -117 -33 -39 -91 -74 -122 -74 -25 0 -50 23
-82 73 -19 31 -18 116 3 272 7 44 13 97 14 118 2 20 9 43 15 49 7 7 12 35 12
63 0 28 4 55 9 61 5 5 12 41 15 79 11 121 25 258 32 303 6 43 -16 141 -39 170
-5 7 -31 12 -60 12 -61 0 -166 -50 -239 -114 -27 -22 -68 -58 -93 -80 -25 -21
-45 -43 -45 -48 0 -6 -13 -27 -30 -48 -25 -32 -30 -47 -30 -94 0 -42 4 -56 14
-56 8 0 18 5 21 10 9 14 58 13 73 -2 7 -7 12 -31 12 -54 0 -23 7 -58 16 -79
14 -34 14 -39 0 -54 -11 -12 -16 -38 -16 -82 0 -36 -4 -69 -9 -74 -5 -6 -12
-35 -14 -65 -7 -75 -21 -153 -30 -167 -4 -7 -8 -90 -8 -185 0 -154 2 -178 20
-219 27 -60 95 -132 145 -153 43 -18 211 -23 221 -6 3 6 15 10 25 10 38 0 96
41 175 122 92 95 140 154 161 201 8 17 18 39 22 47 5 8 17 31 26 50 10 19 24
46 31 60 21 40 71 150 98 215 13 33 33 78 42 100 10 22 21 56 26 75 16 72 42
166 50 182 5 10 9 33 9 51 0 18 6 39 12 45 13 13 17 58 20 212 3 170 -1 183
-67 250 -51 51 -64 60 -95 59 -19 0 -43 -6 -54 -12z"/>
<path d="M7354 3384 c-66 -35 -90 -52 -172 -120 -20 -17 -42 -33 -49 -35 -6
-2 -31 -22 -55 -44 -24 -22 -55 -48 -69 -57 -14 -9 -41 -40 -59 -68 l-33 -52
18 -31 c10 -18 35 -51 54 -73 57 -65 63 -101 57 -335 -8 -285 -16 -412 -27
-424 -5 -5 -9 -34 -9 -65 0 -32 -6 -64 -14 -76 -8 -11 -15 -40 -15 -65 0 -24
-5 -69 -11 -99 -6 -30 -14 -76 -19 -102 -4 -25 -12 -52 -18 -60 -6 -7 -13 -31
-16 -53 -17 -117 -30 -181 -43 -206 -8 -16 -14 -37 -14 -49 0 -38 -65 -122
-118 -154 -10 -6 -34 -21 -53 -33 -62 -42 -122 -26 -138 35 -15 61 3 307 24
332 7 8 15 31 18 50 6 33 16 88 32 173 4 21 12 40 16 43 5 3 9 25 9 50 0 25 5
54 10 65 12 21 22 115 23 219 3 167 -46 264 -165 329 -48 26 -68 31 -126 31
-95 0 -182 -28 -277 -90 -16 -11 -39 -24 -50 -29 -11 -5 -42 -30 -70 -55 -27
-24 -53 -42 -57 -40 -4 3 -8 45 -8 93 l0 89 -30 12 c-33 14 -76 3 -115 -30
-38 -31 -101 -70 -113 -70 -7 0 -12 -5 -12 -10 0 -6 -10 -15 -22 -20 -13 -6
-41 -21 -63 -33 -22 -13 -76 -43 -120 -67 -96 -51 -125 -76 -125 -105 0 -28
62 -108 95 -123 25 -12 25 -12 25 -152 0 -86 -4 -150 -11 -162 -7 -12 -13 -44
-14 -72 -2 -28 -8 -85 -15 -126 -6 -41 -15 -102 -19 -136 -3 -34 -11 -67 -17
-75 -7 -8 -14 -30 -17 -49 -17 -103 -28 -120 -56 -86 -18 22 -81 -7 -111 -52
-36 -52 -112 -122 -133 -122 -10 0 -27 5 -38 10 -18 10 -19 23 -19 201 0 132
4 197 12 212 7 12 16 54 20 92 4 39 12 102 18 140 5 39 13 96 16 128 4 31 10
60 15 63 5 3 9 25 9 49 0 24 4 46 8 49 5 3 14 31 21 63 7 32 16 67 21 78 28
75 33 94 37 125 7 50 -33 96 -73 86 -16 -4 -36 -8 -44 -9 -27 -4 -64 -29 -117
-78 -28 -27 -56 -49 -62 -49 -14 0 -49 39 -57 62 -3 10 -12 18 -19 18 -8 0
-30 14 -48 30 -19 17 -44 30 -55 30 -11 0 -25 7 -32 15 -17 21 -233 21 -270 0
-14 -8 -33 -14 -42 -15 -9 0 -37 -13 -61 -30 -25 -16 -51 -30 -57 -30 -31 0
-211 -174 -239 -231 -7 -17 -22 -34 -32 -40 -11 -5 -19 -14 -19 -20 0 -6 -11
-25 -24 -42 -31 -42 -96 -178 -96 -202 0 -10 -7 -26 -15 -35 -8 -9 -22 -48
-31 -86 -8 -38 -22 -84 -30 -102 -8 -18 -14 -47 -14 -65 0 -18 -4 -37 -9 -43
-24 -26 -35 -443 -13 -521 7 -24 16 -60 20 -80 14 -63 81 -181 117 -209 75
-57 101 -64 228 -64 108 0 122 2 165 26 26 14 54 34 64 45 9 10 19 19 23 19
27 0 168 150 204 218 16 29 41 29 41 -2 0 -13 7 -29 15 -36 8 -7 15 -18 15
-24 0 -24 69 -117 104 -141 52 -36 166 -36 240 -1 106 51 305 299 320 398 1 9
7 22 13 30 6 7 13 31 15 53 2 28 8 41 21 43 26 5 24 -69 -3 -93 -12 -11 -20
-31 -20 -49 0 -17 -9 -55 -20 -84 -11 -29 -20 -68 -20 -87 0 -18 -4 -37 -10
-40 -12 -8 -13 -95 -1 -114 7 -11 28 -13 96 -9 48 3 92 11 98 17 6 6 29 11 52
11 22 0 49 7 59 15 14 11 47 15 118 15 69 0 107 5 131 16 49 23 84 102 58 130
-16 17 -23 125 -23 379 0 251 6 352 23 369 5 6 9 30 9 54 0 24 5 53 11 65 7
12 13 28 14 37 11 102 58 203 120 258 41 36 54 42 92 42 61 0 109 -22 128 -60
13 -25 15 -50 11 -118 -7 -124 -20 -225 -30 -241 -5 -8 -11 -31 -13 -50 -9
-102 -16 -147 -24 -155 -5 -6 -9 -28 -9 -50 0 -23 -7 -50 -15 -60 -9 -12 -15
-42 -15 -76 0 -31 -5 -61 -11 -67 -13 -13 -7 -273 9 -327 6 -22 29 -57 52 -81
42 -42 44 -44 156 -62 69 -11 204 56 301 149 40 38 77 67 83 63 5 -3 10 -24
10 -45 0 -57 30 -70 159 -70 56 0 103 4 106 10 3 6 37 10 74 10 42 0 80 6 97
15 16 8 36 15 45 15 30 0 84 28 117 60 36 36 43 84 18 123 -33 52 -45 198 -33
416 4 63 7 76 28 92 13 10 29 19 34 19 13 0 45 -56 45 -79 0 -9 5 -22 11 -28
5 -5 12 -27 15 -47 2 -20 11 -55 19 -79 8 -23 15 -49 15 -58 0 -9 7 -22 15
-29 8 -7 15 -23 15 -36 0 -12 5 -26 10 -29 6 -3 10 -16 11 -28 0 -12 13 -47
29 -77 16 -30 34 -66 40 -80 52 -115 171 -227 291 -270 56 -21 183 -28 193
-11 3 5 26 12 51 15 25 4 51 14 59 22 8 8 21 14 29 14 21 0 187 170 187 192 0
10 4 18 9 18 14 0 51 114 51 157 0 24 6 46 15 53 34 29 -1 150 -44 150 -22 0
-55 -35 -74 -80 -30 -73 -125 -130 -217 -130 -69 0 -104 15 -153 64 -35 35
-105 140 -131 197 -16 34 -63 108 -124 195 -18 25 -32 54 -30 62 2 13 94 66
239 139 46 23 187 154 244 228 80 103 118 212 117 343 0 74 -4 90 -33 148 -60
117 -127 154 -280 154 -54 0 -101 -4 -104 -10 -3 -5 -18 -10 -33 -10 -15 0
-45 -9 -67 -20 -22 -11 -45 -20 -53 -20 -21 0 -112 -72 -181 -144 -36 -36 -70
-66 -76 -66 -17 0 -7 135 11 172 8 15 14 50 14 78 0 28 4 59 9 69 6 10 13 81
17 159 5 100 11 145 20 153 11 9 14 50 14 178 l0 167 -28 27 c-43 41 -109 38
-198 -9z m376 -1068 c6 -8 23 -16 38 -18 17 -2 35 -16 54 -43 37 -55 39 -144
4 -214 -25 -49 -131 -161 -152 -161 -6 0 -17 -7 -24 -15 -7 -8 -22 -15 -33
-15 -11 0 -28 -6 -36 -14 -13 -12 -187 -76 -205 -76 -9 0 -7 49 3 68 5 9 14
42 20 72 17 78 31 130 47 165 7 17 15 37 18 45 4 8 15 29 26 45 11 17 23 37
26 45 16 35 89 100 114 100 14 1 36 7 50 15 32 18 35 18 50 1z m-3101 -321
c31 -28 40 -45 46 -83 13 -92 1 -348 -18 -370 -6 -8 -12 -21 -13 -30 -11 -75
-18 -103 -25 -108 -5 -3 -9 -16 -9 -28 0 -13 -7 -29 -15 -36 -8 -7 -15 -21
-15 -31 0 -17 -19 -69 -43 -114 -73 -140 -98 -172 -170 -209 -51 -26 -57 -27
-93 -15 -84 28 -106 76 -111 241 -3 81 0 124 8 140 7 13 16 43 21 68 23 138
32 177 44 191 8 8 14 23 14 32 0 10 4 25 9 35 5 9 19 44 31 77 13 33 29 67 35
75 7 8 16 26 20 39 4 13 23 41 44 64 95 106 169 125 240 62z"/>
<path d="M2790 3120 c-8 -5 -52 -10 -96 -10 -58 0 -85 -4 -93 -14 -7 -8 -38
-17 -69 -19 -93 -8 -186 -28 -203 -43 -8 -8 -31 -14 -50 -14 -19 0 -39 -4 -45
-8 -5 -5 -29 -15 -54 -22 -25 -8 -61 -24 -80 -37 -19 -13 -42 -23 -50 -23 -9
0 -25 -7 -36 -15 -10 -8 -25 -15 -32 -15 -7 0 -29 -11 -50 -24 -20 -12 -48
-27 -62 -31 -14 -4 -58 -33 -98 -64 -40 -31 -85 -65 -99 -76 -36 -27 -213
-206 -213 -215 0 -4 -14 -21 -30 -38 -16 -18 -30 -39 -30 -47 0 -8 -4 -15 -9
-15 -6 0 -17 -12 -25 -27 -56 -107 -73 -154 -83 -243 -3 -25 -12 -54 -19 -65
-18 -25 -17 -95 1 -119 8 -11 15 -34 15 -52 0 -30 19 -80 55 -144 23 -41 151
-160 173 -160 11 0 25 -7 32 -15 10 -11 36 -15 111 -15 55 0 107 4 117 9 9 5
36 17 59 26 74 31 143 131 143 208 0 27 6 49 15 57 20 17 19 33 -5 80 -17 33
-26 40 -50 40 -16 0 -45 9 -64 21 -28 16 -38 31 -51 77 -9 31 -14 70 -11 86
27 160 65 230 192 360 105 107 137 126 213 126 76 0 83 -16 77 -177 -9 -219
-17 -307 -29 -322 -7 -8 -15 -46 -19 -85 -17 -186 -31 -284 -43 -311 -8 -16
-16 -48 -19 -70 -3 -22 -10 -67 -16 -100 -6 -33 -14 -82 -16 -110 -3 -27 -10
-54 -15 -59 -5 -6 -9 -27 -9 -47 0 -20 -7 -42 -15 -49 -8 -7 -14 -26 -14 -44
1 -17 -4 -56 -10 -86 -7 -30 -15 -75 -19 -100 -4 -25 -12 -51 -17 -59 -8 -15
-12 -30 -39 -160 -9 -41 -20 -79 -26 -85 -5 -5 -10 -19 -10 -30 0 -11 -4 -33
-9 -50 -5 -17 -15 -51 -23 -76 -32 -114 -101 -210 -149 -210 -15 0 -31 -4 -34
-10 -3 -5 -35 -10 -70 -10 -35 0 -67 5 -70 10 -3 6 -19 10 -36 10 -16 0 -29 4
-29 9 0 5 -13 14 -30 19 -16 6 -45 22 -63 36 -25 19 -46 26 -79 26 -41 0 -49
-4 -90 -48 -62 -66 -67 -77 -69 -163 -2 -66 1 -80 25 -117 14 -23 45 -54 69
-68 23 -14 55 -35 71 -47 17 -11 48 -24 70 -29 23 -5 52 -12 66 -15 31 -9 712
-9 800 -1 174 16 211 21 216 29 3 5 22 9 43 9 22 0 44 6 51 15 7 9 29 15 51
15 21 0 40 4 43 9 4 5 25 12 49 16 23 3 58 12 77 19 19 8 55 20 80 27 58 17
173 74 190 94 7 8 16 15 20 15 38 0 243 188 296 270 42 66 94 169 94 186 0 8
6 25 14 37 19 28 36 95 45 172 4 33 12 70 19 82 16 29 16 135 0 151 -7 7 -16
43 -19 80 -8 81 -25 149 -45 179 -8 12 -14 29 -14 37 0 62 -185 216 -259 216
-10 0 -26 7 -37 15 -12 9 -42 14 -81 15 -74 0 -84 17 -25 43 21 9 42 17 46 17
4 0 19 8 34 19 15 10 56 37 92 61 69 45 170 137 170 155 0 6 14 24 30 40 17
16 30 34 30 41 0 6 7 17 16 24 19 16 74 126 74 149 0 9 7 25 15 35 9 12 15 43
15 75 1 31 7 67 15 81 18 32 19 98 1 141 -8 19 -14 56 -14 82 0 27 -7 59 -16
72 -9 13 -16 34 -16 45 0 11 -7 23 -15 26 -8 3 -28 27 -44 54 -31 50 -76 100
-91 100 -5 0 -26 12 -47 26 -57 39 -163 86 -205 92 -21 2 -43 11 -49 18 -8 10
-39 14 -110 14 -54 0 -101 4 -104 10 -8 13 -145 13 -165 0z m182 -356 c75 -30
108 -71 167 -217 23 -58 9 -267 -21 -301 -4 -6 -8 -23 -8 -38 0 -15 -4 -28 -9
-28 -5 0 -15 -15 -21 -34 -25 -75 -130 -213 -204 -267 -34 -25 -48 -29 -107
-29 -67 0 -69 1 -74 28 -3 15 -12 40 -20 55 -18 35 -19 110 -3 140 7 12 16 60
20 107 4 47 12 114 18 150 6 36 13 90 16 120 3 30 10 59 15 65 5 5 9 19 9 31
0 13 5 26 10 29 6 3 10 19 10 35 0 38 41 124 71 149 29 25 75 26 131 5z m-62
-1275 c73 -56 121 -104 147 -147 24 -41 28 -59 31 -151 5 -125 -19 -258 -55
-302 -7 -8 -13 -25 -13 -38 0 -12 -7 -24 -15 -27 -8 -4 -15 -14 -15 -24 0 -10
-7 -23 -15 -30 -8 -7 -15 -18 -15 -24 0 -7 -13 -25 -30 -41 -16 -16 -30 -34
-30 -41 0 -6 -20 -29 -45 -50 -111 -97 -150 -125 -195 -144 -14 -6 -37 -17
-53 -26 -15 -8 -31 -13 -36 -9 -5 3 -16 -2 -24 -10 -12 -11 -38 -15 -101 -15
-47 0 -87 3 -90 8 -2 4 3 32 11 62 9 30 19 80 22 110 4 30 12 64 18 75 10 20
21 75 29 145 15 146 21 181 32 192 7 7 12 38 12 69 0 32 4 60 9 63 4 3 11 30
14 59 5 54 61 185 84 200 7 4 13 14 13 21 0 7 23 35 51 61 l51 48 88 -5 c73
-5 94 -10 120 -29z"/>
</g>
</svg>
